<svg width="206" height="22" viewBox="0 0 206 22" fill="none" xmlns="http://www.w3.org/2000/svg">
<path d="M0.5 3.12402L11.1673 11.624L15.2702 8.62402L18.5524 16.624L21.8347 14.624H25.9375L32.502 5.62402L36.6048 7.62402L43.1694 3.12402L47.2722 9.62402L50.5544 5.62402L54.6573 10.124L57.119 4.12402H61.2218L64.504 7.12402L67.7863 5.62402L78.4536 6.12402L82.5565 1.62402L87.4799 7.62402H89.9416L94.8649 4.12402L103.891 7.62402H107.173L111.276 15.624H114.558L117.841 8.62402L121.944 6.62402L125.226 19.124L131.79 6.12402L139.175 8.12402L142.458 11.624L149.843 14.624L157.228 11.624L164.613 15.124H167.895L171.177 17.124L174.46 9.62402L178.563 16.124L181.845 9.12402L185.127 13.624L189.23 15.124L192.512 8.12402L199.077 15.624" stroke="#B00020" stroke-width="1.5"/>
<circle cx="202.5" cy="17.624" r="3" fill="#B00020"/>
</svg>
