<svg width="206" height="21" viewBox="0 0 206 21" fill="none" xmlns="http://www.w3.org/2000/svg">
<path d="M1 18.124L11.6673 9.62402L15.7702 12.624L19.0524 4.62402L22.3347 6.62402H26.4375L33.002 15.624L37.1048 13.624L43.6694 18.124L47.7722 11.624L51.0544 15.624L55.1573 11.124L57.619 17.124H61.7218L65.004 14.124L68.2863 15.624L78.9536 15.124L83.0565 19.624L87.9799 13.624H90.4416L95.3649 17.124L104.391 13.624H107.673L111.776 5.62402H115.058L118.341 12.624L122.444 14.624L125.726 2.12402L132.29 15.124L139.675 13.124L142.958 9.62402L150.343 6.62402L157.728 9.62402L165.113 6.12402H168.395L171.677 4.12402L174.96 11.624L179.063 5.12402L182.345 12.124L185.627 7.62402L189.73 6.12402L193.012 13.124L199.577 5.62402" stroke="#43A047" stroke-width="1.5"/>
<circle r="3" transform="matrix(1 0 0 -1 203 3.62402)" fill="#43A047"/>
</svg>
